#tb 0: 1/25
0,          2,          2,        1,   518400, 0x47bd73fa
0,          4,          4,        1,   518400, 0xfe3ea7cc
0,          6,          6,        1,   518400, 0x9bc549ae
0,          8,          8,        1,   518400, 0x7bb7f0a1
0,         10,         10,        1,   518400, 0x328903d4
0,         12,         12,        1,   518400, 0x96ab366b
0,         14,         14,        1,   518400, 0xa923eed3
0,         16,         16,        1,   518400, 0x162b08f6
0,         18,         18,        1,   518400, 0xe711bd8b
0,         20,         20,        1,   518400, 0x55e2d4ed
0,         22,         22,        1,   518400, 0x7dd3107b
0,         24,         24,        1,   518400, 0x0ed20bcf
0,         26,         26,        1,   518400, 0x352f5743
0,         28,         28,        1,   518400, 0x0a3aeb5e
0,         30,         30,        1,   518400, 0xc458eda3
0,         32,         32,        1,   518400, 0xe8d5fec5
0,         34,         34,        1,   518400, 0x18fc6c37
0,         36,         36,        1,   518400, 0x448add76
0,         38,         38,        1,   518400, 0x8741ead7
0,         40,         40,        1,   518400, 0x7008a751
0,         42,         42,        1,   518400, 0x4ca0633d
0,         44,         44,        1,   518400, 0x021ab800
0,         46,         46,        1,   518400, 0xfb91ba57
0,         48,         48,        1,   518400, 0x90e71dd0
0,         50,         50,        1,   518400, 0xac859de5
0,         52,         52,        1,   518400, 0xce9790bd
0,         54,         54,        1,   518400, 0x010ade8b
0,         56,         56,        1,   518400, 0xd0b3a399
0,         58,         58,        1,   518400, 0x6cafcff3
0,         60,         60,        1,   518400, 0xc32284c0
0,         62,         62,        1,   518400, 0x1af8f73e
0,         64,         64,        1,   518400, 0x3babd71e
0,         65,         65,        1,   518400, 0xd77cb86b
